<svg width="24" height="24" viewBox="0 0 24 24" fill="none" xmlns="http://www.w3.org/2000/svg">
<g clip-path="url(#clip0_1_184)">
<path d="M12 2L6.5 11H17.5L12 2ZM17.5 13C16.9091 13 16.3239 13.1164 15.7779 13.3425C15.232 13.5687 14.7359 13.9002 14.318 14.318C13.9002 14.7359 13.5687 15.232 13.3425 15.7779C13.1164 16.3239 13 16.9091 13 17.5C13 18.0909 13.1164 18.6761 13.3425 19.2221C13.5687 19.768 13.9002 20.2641 14.318 20.682C14.7359 21.0998 15.232 21.4313 15.7779 21.6575C16.3239 21.8836 16.9091 22 17.5 22C18.0909 22 18.6761 21.8836 19.2221 21.6575C19.768 21.4313 20.2641 21.0998 20.682 20.682C21.0998 20.2641 21.4313 19.768 21.6575 19.2221C21.8836 18.6761 22 18.0909 22 17.5C22 16.9091 21.8836 16.3239 21.6575 15.7779C21.4313 15.232 21.0998 14.7359 20.682 14.318C20.2641 13.9002 19.768 13.5687 19.2221 13.3425C18.6761 13.1164 18.0909 13 17.5 13ZM3 13.5H11V21.5H3V13.5Z" fill="#030303"/>
</g>
<defs>
<clipPath id="clip0_1_184">
<rect width="24" height="24" fill="white"/>
</clipPath>
</defs>
</svg>
